<svg xmlns="http://www.w3.org/2000/svg" fill-rule="evenodd" stroke-linejoin="round" stroke-miterlimit="2" clip-rule="evenodd" viewBox="0 0 10656 2153" xml:space="preserve"><circle cx="160" cy="160" r="160" fill="#ED1C24" transform="scale(3.125) matrix(2.50162 0 -.17631 2.50162 -924.031 -8664.56) matrix(.20477 0 .01443 .20477 1956.08 3165.63) translate(-1336.22 1455.04) scale(4.16667)"/><path fill="#EEE" d="M1763.03 547.291c-4.72-15.772-5.26-33.019-.68-50.091 13.17-49.156 63.77-78.371 112.93-65.2 49.15 13.171 78.37 63.773 65.2 112.929-4.62 17.207-13.81 31.971-25.93 43.304-8.98-15.617-21.75-29.053-37.44-38.793 5.29-4.76 9.31-11.069 11.29-18.463 5.48-20.418-6.66-41.436-27.08-46.907-20.41-5.47-41.43 6.664-46.9 27.082-1.98 7.395-1.66 14.868.54 21.635l.1.28c3.91 11.84 13.52 21.529 26.44 24.991 13.02 3.489 26.29-.183 35.61-8.618 15.69 9.755 28.46 23.189 37.44 38.793l.33.575c13.86 24.401 18.51 54.056 10.68 83.285-15.82 59.019-76.57 94.096-135.59 78.282-59.02-15.815-94.1-76.57-78.28-135.589 7.89-29.459 26.98-52.953 51.45-67.122l-.11-.373zm.42 1.347c6.42 20.418 19.84 38.294 38.19 50.066-13.88 5.267-25.12 16.914-29.26 32.346-6.83 25.519 8.33 51.788 33.85 58.626 25.52 6.838 51.79-8.329 58.63-33.848 4.13-15.432.22-31.139-9.17-42.64 21.79-1.017 42.35-9.788 58.11-24.262-15.76 14.473-36.32 23.244-58.12 24.251-6.12-7.539-14.59-13.273-24.67-15.974a47.556 47.556 0 0 0-29.36 1.496c-18.37-11.768-31.78-29.643-38.2-50.061zm150.73 39.943-.26.24.26-.24zm-150.89-40.43.11.339-.11-.339z" transform="scale(3.125) matrix(2.50162 0 -.17631 2.50162 -924.031 -8664.56) matrix(.20477 0 .01443 .20477 1956.08 3165.63) matrix(3.1263 .01992 .02013 3.08963 -6411.34 254.454)"/><path fill="#fff" fill-rule="nonzero" d="M671.645 3585.4h100.512v-36H671.645v-47.52h108.576v-36H628.445v209.95h156.96v-36h-113.76v-54.43z" transform="scale(3.125) matrix(2.50162 0 -.17631 2.50162 -924.031 -8664.56)"/><path fill="#fff" fill-rule="nonzero" d="M817.085 3465.88H857.4050000000001V3675.8320000000003H817.085z" transform="scale(3.125) matrix(2.50162 0 -.17631 2.50162 -924.031 -8664.56) translate(-14.717)"/><path fill="#fff" fill-rule="nonzero" d="M953.309 3517.72c-44.64 0-72 32.26-72 84.39 0 49.82 27.072 80.35 71.136 80.35 34.848 0 63.075-19.87 71.995-50.4h-39.739c-4.896 12.38-16.128 19.58-30.816 19.58-27.072 0-31.392-19.87-32.256-40.89h104.251c.29-3.46.29-4.9.29-6.92 0-68.83-41.757-86.11-72.861-86.11zm30.816 66.24h-61.92c2.592-23.61 12.672-35.42 30.528-35.42 18.72 0 29.664 12.67 31.392 35.42z" transform="scale(3.125) matrix(2.50162 0 -.17631 2.50162 -924.031 -8664.56) translate(-21.667)"/><path fill="#fff" fill-rule="nonzero" d="m1131.58 3675.83 53.57-155.52h-42.62l-31.4 113.76-33.69-113.76h-42.63l54.44 155.52h42.33z" transform="scale(3.125) matrix(2.50162 0 -.17631 2.50162 -924.031 -8664.56) translate(-29.843)"/><path fill="#fff" fill-rule="nonzero" d="M1264.92 3517.72c-44.63 0-72 32.26-72 84.39 0 49.82 27.08 80.35 71.14 80.35 34.85 0 63.07-19.87 72-50.4h-39.74c-4.9 12.38-16.13 19.58-30.82 19.58-27.07 0-31.39-19.87-32.25-40.89h104.25c.29-3.46.29-4.9.29-6.92 0-68.83-41.76-86.11-72.87-86.11zm30.82 66.24h-61.92c2.59-23.61 12.67-35.42 30.53-35.42 18.72 0 29.66 12.67 31.39 35.42z" transform="scale(3.125) matrix(2.50162 0 -.17631 2.50162 -924.031 -8664.56) translate(-37.61)"/><path fill="#fff" fill-rule="nonzero" d="M1360.54 3520.31v155.52h40.32v-93.31c0-18.43 12.96-30.53 32.54-30.53 17.28 0 25.93 9.51 25.93 27.94v95.9h40.31v-104.25c0-34.27-19-53.86-52.12-53.86-21.03 0-35.14 7.78-46.66 25.06v-22.47h-40.32z" transform="scale(3.125) matrix(2.50162 0 -.17631 2.50162 -924.031 -8664.56) translate(-44.151)"/><path fill="#fff" fill-rule="nonzero" d="M1602.17 3523.48h-22.46v-41.76h-40.32v41.76h-19.87v26.79h19.87v95.61c0 24.48 12.96 36.58 39.46 36.58 8.92 0 16.12-.87 23.32-3.17v-28.22c-4.03.57-6.33.86-9.21.86-10.66 0-13.25-3.17-13.25-16.99v-84.67h22.46v-26.79z" transform="scale(3.125) matrix(2.50162 0 -.17631 2.50162 -924.031 -8664.56) translate(-55.598)"/><g><path fill="#fff" fill-rule="nonzero" d="M1671.87 3683.32c0 14.69-10.95 25.92-25.06 25.92-3.17 0-5.47-.29-10.65-1.73v30.24c6.04.87 9.5 1.16 14.4 1.16 44.06 0 48.09-23.91 51.84-34.56l63.93-184.04h-41.47l-32.25 113.19-34.28-113.19h-44.35l57.89 161.86v1.15z" transform="scale(3.125) matrix(2.50162 0 -.17631 2.50162 -924.031 -8664.56) translate(-58.868)"/></g></svg>