<?xml version="1.0" encoding="UTF-8" standalone="no"?>
<!DOCTYPE svg PUBLIC "-//W3C//DTD SVG 1.1//EN" "http://www.w3.org/Graphics/SVG/1.1/DTD/svg11.dtd">
<svg width="100%" height="100%" viewBox="0 0 24 24" version="1.1" xmlns="http://www.w3.org/2000/svg" xmlns:xlink="http://www.w3.org/1999/xlink" xml:space="preserve" xmlns:serif="http://www.serif.com/" style="fill-rule:evenodd;clip-rule:evenodd;stroke-linejoin:round;stroke-miterlimit:2;">
    <g transform="matrix(1.09579,0,0,1.14275,-0.657473,-1.71181)">
        <path d="M7.412,13.559C7.802,12.556 8.288,11.592 8.863,10.682C10.118,8.697 11.776,6.998 13.73,5.696L19.542,1.82C19.855,1.61 20.224,1.498 20.601,1.498C21.644,1.498 22.502,2.356 22.502,3.399C22.502,3.776 22.39,4.145 22.181,4.456L18.305,10.27C17.002,12.224 15.303,13.882 13.318,15.136C12.408,15.712 11.444,16.198 10.442,16.588C10.48,16.803 10.5,17.024 10.5,17.25C10.5,20.13 8.13,22.5 5.25,22.5C3.374,22.5 1.636,21.495 0.7,19.869C0.562,19.629 0.567,19.333 0.714,19.098C0.86,18.863 1.124,18.728 1.4,18.747C1.433,18.749 1.467,18.75 1.5,18.75C2.323,18.75 3,18.073 3,17.25C3,15.193 4.693,13.5 6.75,13.5C6.974,13.5 7.196,13.52 7.412,13.559ZM8.836,16.406L8.835,16.404C8.614,15.859 8.193,15.435 7.678,15.201C7.663,15.197 7.648,15.192 7.634,15.187C7.59,15.172 7.549,15.154 7.51,15.132C7.27,15.046 7.014,15 6.75,15C5.516,15 4.5,16.016 4.5,17.25C4.5,18.471 3.755,19.531 2.698,19.997C3.382,20.632 4.291,21 5.25,21C7.307,21 9,19.307 9,17.25C9,16.952 8.942,16.667 8.836,16.406ZM11.93,14.221C11.408,13.332 10.667,12.591 9.778,12.07C9.404,12.726 9.078,13.41 8.805,14.114C9.232,14.394 9.601,14.76 9.886,15.194C10.591,14.921 11.274,14.596 11.93,14.221ZM10.586,10.804C11.658,11.444 12.555,12.341 13.195,13.414C14.713,12.337 16.022,10.99 17.057,9.438L20.933,3.624L20.934,3.622C20.978,3.556 21.002,3.478 21.002,3.399C21.002,3.179 20.821,2.998 20.601,2.998C20.522,2.998 20.444,3.022 20.378,3.066L20.376,3.067L14.562,6.944C13.01,7.979 11.663,9.287 10.586,10.804Z"/>
    </g>
</svg>
