<?xml version="1.0" encoding="UTF-8" standalone="no"?>
<!DOCTYPE svg PUBLIC "-//W3C//DTD SVG 1.1//EN" "http://www.w3.org/Graphics/SVG/1.1/DTD/svg11.dtd">
<svg width="100%" height="100%" viewBox="0 0 10656 2153" version="1.1" xmlns="http://www.w3.org/2000/svg" xmlns:xlink="http://www.w3.org/1999/xlink" xml:space="preserve" xmlns:serif="http://www.serif.com/" style="fill-rule:evenodd;clip-rule:evenodd;stroke-linejoin:round;stroke-miterlimit:2;">
    <g transform="matrix(3.125,0,0,3.125,0,0)">
        <g id="FreeSans-4-degree-tilt-White" serif:id="FreeSans 4 degree tilt White" transform="matrix(2.50162,0,-0.176314,2.50162,-924.031,-8664.56)">
            <g transform="matrix(0.204768,0,0.014432,0.204768,1956.08,3165.63)">
                <g id="_8" serif:id="8">
                    <g id="Eight">
                        <g transform="matrix(4.16667,0,0,4.16667,-1336.22,1455.04)">
                            <circle cx="160" cy="160" r="160" style="fill:rgb(237,28,36);"/>
                        </g>
                        <g transform="matrix(3.1263,0.0199181,0.0201287,3.08963,-6411.34,254.454)">
                            <path d="M1763.03,547.291C1758.31,531.519 1757.77,514.272 1762.35,497.2C1775.52,448.044 1826.12,418.829 1875.28,432C1924.43,445.171 1953.65,495.773 1940.48,544.929C1935.86,562.136 1926.67,576.9 1914.55,588.233C1905.57,572.616 1892.8,559.18 1877.11,549.44C1882.4,544.68 1886.42,538.371 1888.4,530.977C1893.88,510.559 1881.74,489.541 1861.32,484.07C1840.91,478.6 1819.89,490.734 1814.42,511.152C1812.44,518.547 1812.76,526.02 1814.96,532.787L1815.06,533.067C1818.97,544.907 1828.58,554.596 1841.5,558.058C1854.52,561.547 1867.79,557.875 1877.11,549.44C1892.8,559.195 1905.57,572.629 1914.55,588.233L1914.88,588.808C1928.74,613.209 1933.39,642.864 1925.56,672.093C1909.74,731.112 1848.99,766.189 1789.97,750.375C1730.95,734.56 1695.87,673.805 1711.69,614.786C1719.58,585.327 1738.67,561.833 1763.14,547.664L1763.03,547.291ZM1763.45,548.638C1769.87,569.056 1783.29,586.932 1801.64,598.704C1787.76,603.971 1776.52,615.618 1772.38,631.05C1765.55,656.569 1780.71,682.838 1806.23,689.676C1831.75,696.514 1858.02,681.347 1864.86,655.828C1868.99,640.396 1865.08,624.689 1855.69,613.188C1877.48,612.171 1898.04,603.4 1913.8,588.926C1898.04,603.399 1877.48,612.17 1855.68,613.177C1849.56,605.638 1841.09,599.904 1831.01,597.203C1820.93,594.502 1810.73,595.235 1801.65,598.699C1783.28,586.931 1769.87,569.056 1763.45,548.638ZM1914.18,588.581L1913.92,588.821L1914.18,588.581ZM1763.29,548.151L1763.4,548.49L1763.29,548.151Z" style="fill:rgb(238,238,238);"/>
                        </g>
                    </g>
                </g>
            </g>
            <path d="M671.645,3585.4L772.157,3585.4L772.157,3549.4L671.645,3549.4L671.645,3501.88L780.221,3501.88L780.221,3465.88L628.445,3465.88L628.445,3675.83L785.405,3675.83L785.405,3639.83L671.645,3639.83L671.645,3585.4Z" style="fill:white;fill-rule:nonzero;"/>
            <g transform="matrix(1,0,0,1,-14.7171,0)">
                <rect x="817.085" y="3465.88" width="40.32" height="209.952" style="fill:white;fill-rule:nonzero;"/>
            </g>
            <g transform="matrix(1,0,0,1,-21.6668,0)">
                <path d="M953.309,3517.72C908.669,3517.72 881.309,3549.98 881.309,3602.11C881.309,3651.93 908.381,3682.46 952.445,3682.46C987.293,3682.46 1015.52,3662.59 1024.44,3632.06L984.701,3632.06C979.805,3644.44 968.573,3651.64 953.885,3651.64C926.813,3651.64 922.493,3631.77 921.629,3610.75L1025.88,3610.75C1026.17,3607.29 1026.17,3605.85 1026.17,3603.83C1026.17,3535 984.413,3517.72 953.309,3517.72ZM984.125,3583.96L922.205,3583.96C924.797,3560.35 934.877,3548.54 952.733,3548.54C971.453,3548.54 982.397,3561.21 984.125,3583.96Z" style="fill:white;fill-rule:nonzero;"/>
            </g>
            <g transform="matrix(1,0,0,1,-29.8429,0)">
                <path d="M1131.58,3675.83L1185.15,3520.31L1142.53,3520.31L1111.13,3634.07L1077.44,3520.31L1034.81,3520.31L1089.25,3675.83L1131.58,3675.83Z" style="fill:white;fill-rule:nonzero;"/>
            </g>
            <g transform="matrix(1,0,0,1,-37.6103,0)">
                <path d="M1264.92,3517.72C1220.29,3517.72 1192.92,3549.98 1192.92,3602.11C1192.92,3651.93 1220,3682.46 1264.06,3682.46C1298.91,3682.46 1327.13,3662.59 1336.06,3632.06L1296.32,3632.06C1291.42,3644.44 1280.19,3651.64 1265.5,3651.64C1238.43,3651.64 1234.11,3631.77 1233.25,3610.75L1337.5,3610.75C1337.79,3607.29 1337.79,3605.85 1337.79,3603.83C1337.79,3535 1296.03,3517.72 1264.92,3517.72ZM1295.74,3583.96L1233.82,3583.96C1236.41,3560.35 1246.49,3548.54 1264.35,3548.54C1283.07,3548.54 1294.01,3561.21 1295.74,3583.96Z" style="fill:white;fill-rule:nonzero;"/>
            </g>
            <g transform="matrix(1,0,0,1,-44.1512,0)">
                <path d="M1360.54,3520.31L1360.54,3675.83L1400.86,3675.83L1400.86,3582.52C1400.86,3564.09 1413.82,3551.99 1433.4,3551.99C1450.68,3551.99 1459.33,3561.5 1459.33,3579.93L1459.33,3675.83L1499.64,3675.83L1499.64,3571.58C1499.64,3537.31 1480.64,3517.72 1447.52,3517.72C1426.49,3517.72 1412.38,3525.5 1400.86,3542.78L1400.86,3520.31L1360.54,3520.31Z" style="fill:white;fill-rule:nonzero;"/>
            </g>
            <g transform="matrix(1,0,0,1,-55.5978,0)">
                <path d="M1602.17,3523.48L1579.71,3523.48L1579.71,3481.72L1539.39,3481.72L1539.39,3523.48L1519.52,3523.48L1519.52,3550.27L1539.39,3550.27L1539.39,3645.88C1539.39,3670.36 1552.35,3682.46 1578.85,3682.46C1587.77,3682.46 1594.97,3681.59 1602.17,3679.29L1602.17,3651.07C1598.14,3651.64 1595.84,3651.93 1592.96,3651.93C1582.3,3651.93 1579.71,3648.76 1579.71,3634.94L1579.71,3550.27L1602.17,3550.27L1602.17,3523.48Z" style="fill:white;fill-rule:nonzero;"/>
            </g>
            <g transform="matrix(1,0,0,1,-58.8683,0)">
                <path d="M1671.87,3683.32C1671.87,3698.01 1660.92,3709.24 1646.81,3709.24C1643.64,3709.24 1641.34,3708.95 1636.16,3707.51L1636.16,3737.75C1642.2,3738.62 1645.66,3738.91 1650.56,3738.91C1694.62,3738.91 1698.65,3715 1702.4,3704.35L1766.33,3520.31L1724.86,3520.31L1692.61,3633.5L1658.33,3520.31L1613.98,3520.31L1671.87,3682.17L1671.87,3683.32Z" style="fill:white;fill-rule:nonzero;"/>
            </g>
        </g>
    </g>
</svg>
