<?xml version="1.0" standalone="no"?>
<!DOCTYPE svg PUBLIC "-//W3C//DTD SVG 20010904//EN"
 "http://www.w3.org/TR/2001/REC-SVG-20010904/DTD/svg10.dtd">
<svg version="1.0" xmlns="http://www.w3.org/2000/svg"
 width="683.000000pt" height="683.000000pt" viewBox="0 0 683.000000 683.000000"
 preserveAspectRatio="xMidYMid meet">
<metadata>
Created by potrace 1.14, written by Peter Selinger 2001-2017
</metadata>
<g transform="translate(0.000000,683.000000) scale(0.100000,-0.100000)"
fill="#000000" stroke="none">
<path d="M3200 6824 c-19 -2 -84 -9 -145 -15 -579 -58 -1156 -278 -1640 -627
-264 -191 -576 -503 -767 -767 -304 -422 -513 -920 -597 -1420 -38 -224 -46
-328 -46 -580 0 -389 47 -692 161 -1046 169 -527 439 -965 838 -1365 566 -566
1233 -886 2056 -986 137 -17 573 -17 710 0 627 76 1160 281 1645 630 264 191
576 503 767 767 304 422 513 920 597 1420 38 224 46 328 46 580 0 252 -8 356
-46 580 -84 500 -293 998 -597 1420 -191 264 -503 576 -767 767 -472 340
-1002 547 -1595 623 -117 15 -540 28 -620 19z m810 -857 c316 -75 575 -225
784 -455 181 -200 303 -440 362 -712 28 -128 25 -429 -4 -563 -59 -266 -180
-500 -349 -678 -40 -42 -73 -81 -73 -88 0 -6 13 -35 29 -64 43 -76 106 -230
135 -333 54 -190 61 -243 60 -494 0 -219 -2 -243 -27 -348 -79 -335 -217 -596
-435 -823 -324 -338 -733 -524 -1203 -546 -219 -10 -472 28 -683 104 -515 183
-937 620 -1100 1137 -96 305 -110 576 -45 886 93 448 368 845 758 1094 61 39
72 51 68 69 -2 12 -15 69 -28 127 -30 136 -33 406 -6 540 121 607 592 1067
1187 1160 41 7 82 13 90 15 8 2 96 2 195 0 147 -3 199 -8 285 -28z"/>
<path d="M3555 5134 c-216 -54 -395 -232 -446 -444 -19 -77 -16 -222 5 -295
116 -399 568 -577 922 -364 31 19 84 64 119 101 302 319 165 840 -260 984
-100 34 -248 42 -340 18z"/>
<path d="M3100 3364 c-276 -41 -486 -188 -596 -419 -179 -375 -24 -819 351
-1008 191 -96 395 -109 603 -38 117 40 184 84 283 181 72 71 93 101 132 180
66 133 81 200 82 345 0 134 -15 201 -71 320 -61 131 -177 259 -300 331 -144
84 -342 128 -484 108z"/>
</g>
</svg>
